<svg xmlns="http://www.w3.org/2000/svg" width="107.815" height="149.376" viewBox="0 0 107.815 149.376">
  <g id="Raggruppa_3" data-name="Raggruppa 3" transform="translate(-839.183 -441.657)">
    <path id="Tracciato_1" data-name="Tracciato 1" d="M100.553,125.35c24.668-17.322,42.813-38.826,39.32-65.861-7.017-29.18-28.635-42.8-48.914-53.709-.34-.19-.36.139-.288.226,3.761,4.342,23.7,28.069,26.2,60.011,1.368,17.615-3.22,37.545-17.214,58.509-.6.664-.01,1.646.9.823" transform="translate(768.677 465.37)" fill="#0e6fa7" fill-rule="evenodd"/>
    <path id="Tracciato_11" data-name="Tracciato 11" d="M135.275,146.357c55.181-69.194-31.788-133.3-48.3-145.39-.36-.262-.448-1.224.556-.9,40.143,15.094,105.865,58.823,107.007,119.22.062.6-.612.412-.715.165-7.655-12-38.805,11.971-57.424,28.038-1.564,1.348-2.32.365-1.121-1.132" transform="translate(752.46 441.657)" fill="#003b6e" fill-rule="evenodd"/>
  </g>
</svg>
