<svg xmlns="http://www.w3.org/2000/svg" xmlns:xlink="http://www.w3.org/1999/xlink" width="553.971" height="149.377" viewBox="0 0 553.971 149.377">
  <defs>
    <clipPath id="clip-path">
      <rect id="Rettangolo_3" data-name="Rettangolo 3" width="553.971" height="149.377" fill="#fff"/>
    </clipPath>
  </defs>
  <g id="Raggruppa_4" data-name="Raggruppa 4" transform="translate(0 0)">
    <g id="Raggruppa_1" data-name="Raggruppa 1" transform="translate(0 0)" clip-path="url(#clip-path)">
      <path id="Tracciato_1" data-name="Tracciato 1" d="M100.553,125.35c24.668-17.322,42.813-38.826,39.32-65.861-7.017-29.18-28.635-42.8-48.914-53.709-.34-.19-.36.139-.288.226,3.761,4.342,23.7,28.069,26.2,60.011,1.368,17.615-3.22,37.545-17.214,58.509-.6.664-.01,1.646.9.823" transform="translate(375.648 23.712)" fill="#fff" fill-rule="evenodd"/>
      <path id="Tracciato_2" data-name="Tracciato 2" d="M73.774,42.124V36.29c0-14.394-8.257-25.064-22.852-25.064C37.335,11.226,28.07,20.887,28.07,38c0,21.242,11.879,26.875,24.262,26.875,9.461,0,14.6-2.917,19.93-8.252l-7.953-7.753C60.985,52.192,58.171,53.8,52.429,53.8c-7.346,0-11.472-4.934-11.472-11.678ZM60.887,33.168H40.957a14.328,14.328,0,0,1,1.209-5.633A9.106,9.106,0,0,1,50.922,22.1a9.106,9.106,0,0,1,8.756,5.438,14.42,14.42,0,0,1,1.209,5.633" transform="translate(116.338 46.525)" fill="#fff" fill-rule="evenodd"/>
      <path id="Tracciato_3" data-name="Tracciato 3" d="M43.941,53.119c0-7.851-.1-16.807-5.34-22.039-2.917-2.922-7.645-4.733-12.779-4.733-5.335,0-9.26,1.41-12.681,5.237V7.723H.053v44.5c0,9.708,1.374,17.028,6.029,21.309,5.026,5.057,9.872,5.865,19.74,5.865,5.134,0,9.559-1.5,12.476-4.414,5.232-5.237,5.644-14.009,5.644-21.859m-13.088,0c0,8.555-1.008,15.1-8.859,15.1s-8.854-6.544-8.854-15.1,1-15,8.854-15,8.859,6.446,8.859,15" transform="translate(0.22 32.006)" fill="#fff" fill-rule="evenodd"/>
      <path id="Tracciato_4" data-name="Tracciato 4" d="M33.661,79.388V68.317H28.63c-3.323,0-4.63-1.61-4.63-4.733V7.724H10.912V64.391c0,7.449,4.532,15,15.3,15Z" transform="translate(45.225 32.01)" fill="#fff" fill-rule="evenodd"/>
      <path id="Tracciato_5" data-name="Tracciato 5" d="M76.875,7.724H71.736V37.115c-4.224-5.638-8.957-6.847-14.394-6.847-5.031,0-9.358,1.713-11.874,4.229-4.928,4.934-6.245,12.985-6.245,20.635s1.317,15.7,6.245,20.635c2.516,2.516,6.842,4.224,11.874,4.224,13.35,0,19.395-8.905,19.395-23.3,0-4.023.139-48.966.139-48.966M71.736,55.131c0,10.063-1.811,20.331-13.685,20.331s-13.69-10.269-13.69-20.331S46.167,34.8,58.051,34.8,71.736,45.068,71.736,55.131" transform="translate(162.558 32.01)" fill="#fff" fill-rule="evenodd"/>
      <path id="Tracciato_6" data-name="Tracciato 6" d="M93.31,38.081v-2.32c0-14.8-7.346-23.655-19.426-23.655-12.182,0-19.431,9.26-19.431,24.864,0,16.205,7.249,24.858,20.635,24.858,8.056,0,12.584-2.511,17.517-7.444l-3.828-3.02C84.652,55.49,81.128,57.2,75.391,57.2c-10.263,0-15.8-6.847-15.8-19.122ZM88.176,33.95H59.587c.206-4.63.5-6.137,1.713-9.157a13.783,13.783,0,0,1,25.162,0c1.209,3.02,1.513,4.527,1.713,9.157" transform="translate(225.684 50.172)" fill="#fff" fill-rule="evenodd"/>
      <path id="Tracciato_7" data-name="Tracciato 7" d="M101.7,28.008c0-10.166-6.035-15.9-18.819-15.9-7.856,0-12.985,1.713-17.116,7.449l3.725,3.22c3.025-4.429,6.544-6.137,13.391-6.137,9.862,0,13.69,4.126,13.69,11.879V33.95H80.864c-10.567,0-16.91,5.134-16.91,13.988A13.873,13.873,0,0,0,67.478,57.4c3.123,3.221,7.146,4.424,14.3,4.424,15.439,0,19.925-8.092,19.925-17.857ZM96.57,44.316c0,4.527-.905,7.552-2.721,9.26C90.428,56.9,86.2,57.3,81.775,57.3c-8.761,0-12.686-3.02-12.686-9.461s4.028-9.764,12.383-9.764h15.1Z" transform="translate(265.061 50.172)" fill="#fff" fill-rule="evenodd"/>
      <path id="Tracciato_8" data-name="Tracciato 8" d="M105.39,61.226h4.45v-31c0-8.252,5.33-13.587,13.69-13.587,8.658,0,13.386,5.134,13.386,14.492v30.1h5.036v-31c0-5.736-1.811-10.366-5.036-13.489-3.02-2.917-7.449-4.63-12.784-4.63-7.146,0-12.887,3.123-16.509,8.859-3.622-5.736-9.379-8.859-16.529-8.859-5.33,0-9.764,1.713-12.784,4.63-3.22,3.123-5.026,7.753-5.026,13.489v31h5.026v-30.1c0-9.358,4.733-14.492,13.391-14.492,8.355,0,13.69,5.335,13.69,13.587Z" transform="translate(303.725 50.172)" fill="#fff" fill-rule="evenodd"/>
      <path id="Tracciato_9" data-name="Tracciato 9" d="M38.993,52.73c-4.126,0-8.658-2.413-8.658-9.564V11.46H17.252V44.488c0,5.736,1.106,10.67,5.33,14.9,2.922,2.917,6.976,4.908,16.411,4.908,9.481,0,13.489-1.991,16.406-4.908,4.229-4.229,5.335-9.162,5.335-14.9V11.46H47.646V43.166c0,7.151-4.527,9.564-8.653,9.564" transform="translate(71.502 47.495)" fill="#fff" fill-rule="evenodd"/>
      <path id="Tracciato_10" data-name="Tracciato 10" d="M68.546,11.981c-8.833,0-19.3,4.512-19.3,19.477V61.744h5.134V31.854c0-7.856,4.944-14.677,14.163-14.677Z" transform="translate(204.115 49.654)" fill="#fff" fill-rule="evenodd"/>
      <path id="Tracciato_11" data-name="Tracciato 11" d="M135.275,146.357c55.181-69.194-31.788-133.3-48.3-145.39-.36-.262-.448-1.224.556-.9,40.143,15.094,105.865,58.823,107.007,119.22.062.6-.612.412-.715.165-7.655-12-38.805,11.971-57.424,28.038-1.564,1.348-2.32.365-1.121-1.132" transform="translate(359.431 -0.001)" fill="#fff" fill-rule="evenodd"/>
      <path id="Tracciato_12" data-name="Tracciato 12" d="M17.08,39.162A4.764,4.764,0,0,0,15.13,35.1a8.859,8.859,0,0,0-4.471-1.471L7.933,33.3a5.989,5.989,0,0,1-2.685-.916,2.17,2.17,0,0,1-.911-1.837c0-1.749,1.549-3.082,4.373-3.082a7.968,7.968,0,0,1,5.211,1.528l2.32-1.888A11.248,11.248,0,0,0,8.807,24.85c-4.975,0-8,2.361-8,5.808a4.5,4.5,0,0,0,1.749,3.776,9.083,9.083,0,0,0,4.537,1.585l2.824.334a4.649,4.649,0,0,1,2.624.839,2.426,2.426,0,0,1,.941,2.053c0,1.919-1.816,3.03-4.944,3.03a8.9,8.9,0,0,1-6.122-1.888L0,42.357c2.289,1.919,4.877,2.613,8.473,2.613,5.011,0,8.607-2.171,8.607-5.808" transform="translate(0 102.99)" fill="#fff" fill-rule="evenodd"/>
      <path id="Tracciato_13" data-name="Tracciato 13" d="M19.982,38.14H12.62l3.735-8.782Zm6.523,6.534L17.729,24.882H14.807L6.03,44.673H9.894L11.54,40.7H20.99l1.646,3.977Z" transform="translate(24.992 103.123)" fill="#fff" fill-rule="evenodd"/>
      <rect id="Rettangolo_1" data-name="Rettangolo 1" width="3.632" height="19.791" transform="translate(66.823 128.007)" fill="#fff"/>
      <path id="Tracciato_14" data-name="Tracciato 14" d="M32.395,44.673v-2.7H20.861v-17.1H17.229V44.673Z" transform="translate(71.405 103.123)" fill="#fff" fill-rule="evenodd"/>
      <rect id="Rettangolo_2" data-name="Rettangolo 2" width="3.632" height="19.791" transform="translate(119.863 128.007)" fill="#fff"/>
      <path id="Tracciato_15" data-name="Tracciato 15" d="M45.555,44.673V24.882H41.928v13.9l-11.066-13.9H27.539V44.673h3.632V30.747L42.227,44.673Z" transform="translate(114.137 103.123)" fill="#fff" fill-rule="evenodd"/>
      <path id="Tracciato_16" data-name="Tracciato 16" d="M51.762,37.135v-3.03H43.016v2.557h5.109v1.111a4.005,4.005,0,0,1-1.2,3.112,5.641,5.641,0,0,1-3.9,1.389,5.3,5.3,0,0,1-3.524-1.194c-1.178-1.055-1.451-2.2-1.451-6.168s.273-5.088,1.451-6.148a5.338,5.338,0,0,1,3.524-1.219c2.7,0,4.435,1.281,5.037,3.447h3.673c-.674-3.39-3.632-6.143-8.71-6.143a9.568,9.568,0,0,0-6.287,2.109c-2.356,1.95-2.325,4.146-2.325,7.953s-.031,6,2.325,7.948a9.668,9.668,0,0,0,6.287,2.109,9.692,9.692,0,0,0,6.6-2.248c1.579-1.394,2.15-3.03,2.15-5.587" transform="translate(142.589 102.99)" fill="#fff" fill-rule="evenodd"/>
      <path id="Tracciato_17" data-name="Tracciato 17" d="M62,38.885H58.33a4.66,4.66,0,0,1-4.872,3.39,5.35,5.35,0,0,1-3.529-1.194c-1.183-1.06-1.446-2.2-1.446-6.173s.262-5.114,1.446-6.168a5.322,5.322,0,0,1,3.529-1.194,4.618,4.618,0,0,1,4.841,3.39H62c-.839-3.951-4.136-6.086-8.54-6.086a9.686,9.686,0,0,0-6.287,2.109c-2.356,1.945-2.32,4.141-2.32,7.948s-.036,6,2.32,7.948a9.661,9.661,0,0,0,6.287,2.114c4.342,0,7.732-2.14,8.54-6.086" transform="translate(185.887 102.994)" fill="#fff" fill-rule="evenodd"/>
      <path id="Tracciato_18" data-name="Tracciato 18" d="M68.425,44.673V24.882H64.793v8.452H55.075V24.882H51.443V44.673h3.632V36.03h9.718v8.643Z" transform="translate(213.208 103.123)" fill="#fff" fill-rule="evenodd"/>
      <path id="Tracciato_19" data-name="Tracciato 19" d="M71.673,38.14H64.311l3.73-8.782ZM78.2,44.673,69.425,24.882H66.5L57.721,44.673H61.59L63.236,40.7h9.451l1.646,3.977Z" transform="translate(239.228 103.123)" fill="#fff" fill-rule="evenodd"/>
      <path id="Tracciato_20" data-name="Tracciato 20" d="M77.764,30.7c0,1.945-1.646,3.082-4.069,3.082H68.313v-6.2h5.381c2.423,0,4.069,1.173,4.069,3.118m4.368,13.978-5.51-8.751C79.312,35.3,81.4,33.5,81.4,30.664c0-3.359-2.891-5.782-7.429-5.782H64.681V44.673h3.632V36.334h4.543L77.9,44.673Z" transform="translate(268.074 103.123)" fill="#fff" fill-rule="evenodd"/>
      <path id="Tracciato_21" data-name="Tracciato 21" d="M87.678,27.578v-2.7H70.866v2.7h6.59v17.1h3.637v-17.1Z" transform="translate(293.707 103.124)" fill="#fff" fill-rule="evenodd"/>
      <path id="Tracciato_22" data-name="Tracciato 22" d="M92.551,44.673v-2.7H80.883V36.03h9.955V33.36H80.883V27.578H92.551v-2.7H77.256V44.673Z" transform="translate(320.191 103.123)" fill="#fff" fill-rule="evenodd"/>
      <path id="Tracciato_23" data-name="Tracciato 23" d="M96.6,30.7c0,1.945-1.646,3.082-4.069,3.082H87.145v-6.2h5.381c2.423,0,4.069,1.173,4.069,3.118m4.368,13.978-5.51-8.751c2.691-.617,4.774-2.423,4.774-5.258,0-3.359-2.891-5.782-7.429-5.782H83.513V44.673h3.632V36.334h4.543l5.042,8.339Z" transform="translate(346.124 103.123)" fill="#fff" fill-rule="evenodd"/>
    </g>
  </g>
</svg>
